<?xml version="1.0" standalone="no"?>
<!DOCTYPE svg PUBLIC "-//W3C//DTD SVG 20010904//EN"
 "http://www.w3.org/TR/2001/REC-SVG-20010904/DTD/svg10.dtd">
<svg version="1.0" xmlns="http://www.w3.org/2000/svg"
 width="832.000000pt" height="300.000000pt" viewBox="0 0 832.000000 300.000000"
 preserveAspectRatio="xMidYMid meet">

<g transform="translate(0.000000,300.000000) scale(0.100000,-0.100000)"
fill="#000000" stroke="none">
<path d="M8178 2993 c6 -2 18 -2 25 0 6 3 1 5 -13 5 -14 0 -19 -2 -12 -5z"/>
<path d="M8080 2912 c0 -19 29 -60 48 -66 16 -6 15 -5 0 7 -10 8 -24 27 -33
43 -8 16 -15 23 -15 16z"/>
<path d="M7760 2797 c-1 -18 30 -65 47 -71 16 -5 16 -5 2 6 -9 7 -23 27 -32
43 -9 17 -16 26 -17 22z"/>
<path d="M7479 2753 c-13 -16 -12 -17 4 -4 16 13 21 21 13 21 -2 0 -10 -8 -17
-17z"/>
<path d="M7461 2708 c-1 -19 10 -38 34 -62 23 -23 35 -30 35 -20 0 9 13 29 29
45 16 16 26 29 21 29 -11 0 -36 -25 -49 -48 -9 -15 -12 -15 -35 7 -14 13 -27
35 -29 50 l-4 26 -2 -27z"/>
<path d="M7608 2703 c7 -3 16 -2 19 1 4 3 -2 6 -13 5 -11 0 -14 -3 -6 -6z"/>
<path d="M6789 2673 c-13 -16 -12 -17 4 -4 16 13 21 21 13 21 -2 0 -10 -8 -17
-17z"/>
<path d="M7122 2654 c-12 -8 -22 -20 -22 -26 0 -7 6 -5 13 4 6 8 21 20 32 26
11 6 15 12 10 12 -6 0 -21 -7 -33 -16z"/>
<path d="M6756 2625 c-3 -9 -5 -33 -5 -53 2 -33 2 -32 9 13 8 53 6 66 -4 40z"/>
<path d="M3489 2600 c-4 -25 -5 -25 -134 -30 l-130 -5 -9 -27 c-16 -45 2 -54
121 -62 115 -7 123 -11 123 -62 0 -26 -6 -34 -44 -52 -24 -12 -49 -22 -56 -22
-18 0 -82 -32 -76 -38 3 -2 -5 -13 -18 -23 -29 -23 -56 -98 -56 -156 l0 -43
-78 0 c-44 0 -113 -3 -155 -6 l-77 -7 1 -83 1 -84 27 0 c27 0 93 -41 117 -71
7 -9 8 -25 2 -48 l-9 -33 -70 4 c-75 4 -92 -12 -23 -23 l39 -6 -42 -2 -43 -1
0 -90 0 -90 53 0 54 0 28 128 c16 70 33 150 39 179 6 28 15 55 20 60 11 11 3
-39 -38 -217 l-33 -145 238 -3 c148 -1 239 -6 239 -12 0 -6 -141 -10 -390 -10
-253 0 -390 4 -390 10 0 6 35 10 85 10 l85 0 0 90 c0 82 -2 90 -19 90 -16 0
-21 -9 -25 -42 -11 -85 -15 -92 -12 -26 2 74 4 78 35 81 21 1 22 5 19 107 l-3
105 -60 6 -60 6 58 1 57 2 -1 73 c-1 39 -4 63 -6 51 -3 -18 -18 -24 -91 -39
-105 -22 -146 -40 -138 -62 4 -9 -4 -25 -19 -39 -41 -38 -34 -79 23 -133 45
-44 46 -47 30 -64 -13 -12 -18 -33 -18 -72 0 -55 0 -56 -22 -43 -15 9 -83 15
-203 18 l-180 5 -5 45 -5 45 -60 5 -60 6 45 5 c25 3 -16 6 -91 7 -111 2 -139
-1 -149 -13 -16 -20 -8 -114 11 -126 8 -5 56 -9 107 -9 l92 0 0 -42 c0 -24 -4
-48 -8 -55 -5 -8 -71 -12 -222 -15 -200 -3 -218 -5 -257 -25 -54 -29 -73 -58
-73 -109 0 -22 -3 -68 -6 -100 l-6 -59 -74 3 c-69 4 -74 3 -74 -16 0 -11 6
-23 13 -25 9 -4 8 -8 -3 -16 -8 -6 -17 -11 -20 -11 -3 0 -11 41 -18 92 -12 90
-39 157 -76 187 -18 15 -150 46 -235 55 -80 9 -380 9 -425 0 -30 -5 -43 -18
-90 -88 -35 -52 -60 -103 -70 -141 -25 -100 -56 -388 -64 -600 -7 -195 -8
-200 -29 -203 -26 -4 -29 6 -38 108 -7 84 -16 107 -36 94 -7 -4 -49 -15 -94
-23 l-80 -16 3 -155 c1 -85 5 -178 8 -207 l5 -52 -50 -7 c-28 -4 -51 -11 -51
-16 0 -6 -6 -8 -13 -5 -19 7 -57 -11 -57 -27 0 -9 8 -19 17 -24 35 -17 379 6
423 29 11 6 9 10 -13 20 -31 14 -36 39 -8 39 26 0 48 -23 56 -60 4 -16 11 -30
16 -30 6 0 22 -14 37 -31 49 -59 67 -62 399 -67 292 -4 302 -4 330 16 16 11
37 36 48 55 17 33 22 35 116 52 87 16 104 17 156 4 68 -16 460 -16 1327 1 298
5 692 13 877 17 l335 6 13 -30 c17 -42 87 -112 128 -130 60 -24 537 8 619 42
57 23 95 106 110 235 7 67 19 81 84 103 53 18 254 41 278 32 9 -3 41 -44 71
-90 29 -45 64 -88 78 -94 48 -22 615 -7 756 21 76 14 99 34 132 112 15 36 31
64 34 62 3 -2 6 15 6 37 1 23 7 92 14 152 22 179 2 489 -45 696 -9 41 -21 82
-26 93 -7 13 -6 21 3 27 11 7 11 9 -1 9 -9 0 -22 16 -29 36 -7 20 -29 53 -48
74 -43 48 -92 60 -245 60 -101 0 -112 2 -130 22 -19 22 -24 39 -31 93 -3 24
-4 22 -5 -10 -1 -24 6 -52 17 -71 l19 -32 -121 -6 c-67 -4 -145 -9 -173 -12
l-51 -6 4 84 c2 45 8 161 13 256 14 240 15 225 -15 220 -24 -5 -25 -3 -19 28
5 28 3 34 -11 34 -13 0 -16 6 -13 25 3 15 0 29 -7 33 -7 4 -15 18 -17 31 -3
23 -4 24 -113 21 -60 -1 -263 -5 -450 -9 l-340 -7 -98 -46 -98 -47 -19 32
c-11 18 -20 40 -20 50 0 39 -19 57 -60 57 -39 0 -40 -1 -40 -36 0 -31 -3 -35
-17 -28 -10 5 -82 10 -161 12 l-143 3 -21 44 c-18 38 -25 43 -47 40 -25 -4
-214 -31 -278 -39 -43 -6 -55 11 -51 76 l3 53 112 5 c91 4 115 8 132 24 l21
19 -22 24 c-20 22 -29 23 -140 23 -98 0 -118 3 -118 15 0 21 -18 19 -23 -2 -3
-15 -6 -13 -14 7 l-11 25 -3 -25z m8 -162 c-3 -7 -5 -2 -5 12 0 14 2 19 5 13
2 -7 2 -19 0 -25z m26 -125 c-29 -2 -78 -2 -110 0 -32 2 -8 3 52 3 61 0 87 -1
58 -3z m-186 -9 c-3 -3 -12 -4 -19 -1 -8 3 -5 6 6 6 11 1 17 -2 13 -5z m270 0
c-3 -3 -12 -4 -19 -1 -8 3 -5 6 6 6 11 1 17 -2 13 -5z m1573 -20 c-14 -2 -154
-8 -312 -13 l-288 -9 -65 -37 c-36 -20 -65 -42 -65 -49 0 -7 7 -33 16 -59 l16
-47 226 -1 c125 -1 261 -5 302 -9 48 -4 -37 -7 -232 -8 l-306 -2 -22 71 c-12
38 -20 72 -19 74 2 1 36 20 74 41 l70 39 190 5 c222 7 451 9 415 4z m-1430
-48 c0 -12 -5 -7 -19 24 -11 24 -11 24 3 6 9 -11 16 -24 16 -30z m17 -108 c-3
-8 -6 -5 -6 6 -1 11 2 17 5 13 3 -3 4 -12 1 -19z m370 -40 c-2 -13 -4 -5 -4
17 -1 22 1 32 4 23 2 -10 2 -28 0 -40z m72 -33 c0 -5 -6 1 -14 15 -8 14 -14
30 -14 35 0 6 6 -1 14 -15 8 -14 14 -29 14 -35z m-981 8 c-27 -2 -69 -2 -95 0
-27 2 -5 3 47 3 52 0 74 -1 48 -3z m79 1 c-3 -3 -12 -4 -19 -1 -8 3 -5 6 6 6
11 1 17 -2 13 -5z m171 -1 c-26 -2 -71 -2 -100 0 -29 2 -8 3 47 3 55 0 79 -1
53 -3z m-430 -10 c-10 -2 -28 -2 -40 0 -13 2 -5 4 17 4 22 1 32 -1 23 -4z
m555 0 c-7 -2 -21 -2 -30 0 -10 3 -4 5 12 5 17 0 24 -2 18 -5z m-660 -10 c-7
-2 -19 -2 -25 0 -7 3 -2 5 12 5 14 0 19 -2 13 -5z m1028 -30 c13 -16 12 -17
-3 -4 -17 13 -22 21 -14 21 2 0 10 -8 17 -17z m49 -65 c19 -24 26 -37 17 -29
-19 15 -61 71 -54 71 2 0 19 -19 37 -42z m863 25 c-46 -2 -120 -2 -165 0 -46
1 -9 3 82 3 91 0 128 -2 83 -3z m-1355 -10 c-10 -2 -28 -2 -40 0 -13 2 -5 4
17 4 22 1 32 -1 23 -4z m210 0 c-10 -2 -28 -2 -40 0 -13 2 -5 4 17 4 22 1 32
-1 23 -4z m-291 -9 c-3 -3 -12 -4 -19 -1 -8 3 -5 6 6 6 11 1 17 -2 13 -5z
m346 -1 c-7 -2 -19 -2 -25 0 -7 3 -2 5 12 5 14 0 19 -2 13 -5z m-181 -98 c11
-21 8 -18 -32 30 -24 29 -24 29 -2 10 13 -11 28 -29 34 -40z m478 33 c0 -18
-2 -20 -9 -8 -6 8 -7 18 -5 22 9 14 14 9 14 -14z m-1220 -39 l0 -50 -40 33
c-22 18 -40 36 -40 39 0 5 51 25 73 28 4 1 7 -22 7 -50z m576 14 c-8 -15 -15
-25 -16 -21 0 12 23 58 27 54 3 -2 -2 -17 -11 -33z m311 31 c-3 -3 -12 -4 -19
-1 -8 3 -5 6 6 6 11 1 17 -2 13 -5z m103 -34 c8 -5 11 -10 5 -10 -5 0 -17 5
-25 10 -8 5 -10 10 -5 10 6 0 17 -5 25 -10z m433 -7 c-13 -2 -33 -2 -45 0 -13
2 -3 4 22 4 25 0 35 -2 23 -4z m-373 -70 l0 -33 -67 2 -68 2 63 3 c59 4 62 5
62 30 0 15 -8 36 -17 47 -18 21 -18 21 5 2 15 -13 22 -30 22 -53z m1420 28 c0
-44 -29 -76 -138 -150 -91 -61 -97 -75 -97 -203 0 -80 -3 -108 -12 -108 -8 0
-13 15 -13 40 0 50 -22 105 -52 130 -57 47 -108 55 -355 54 l-231 -1 -6 29
c-7 34 -1 48 20 48 10 0 14 14 14 58 0 39 6 64 18 80 17 22 18 22 257 20 l240
-3 3 -37 c2 -21 7 -38 13 -38 15 0 10 62 -8 82 -15 16 -37 18 -262 18 -142 0
-252 4 -261 10 -10 6 138 10 428 10 l442 0 0 -39z m-1597 -51 c-2 -2 -23 16
-46 40 l-42 44 46 -40 c25 -21 44 -41 42 -44z m637 60 c0 -6 -37 -10 -90 -10
-53 0 -90 4 -90 10 0 6 37 10 90 10 53 0 90 -4 90 -10z m90 -4 c0 -11 -13 -36
-19 -36 -3 0 -12 9 -19 20 -11 18 -10 20 13 20 14 0 25 -2 25 -4z m-1059 -33
c-12 -20 -14 -14 -5 12 4 9 9 14 11 11 3 -2 0 -13 -6 -23z m237 -28 c0 -16 -2
-15 -8 5 -11 34 -11 60 0 35 5 -11 8 -29 8 -40z m675 38 c-29 -2 -78 -2 -110
0 -32 2 -8 3 52 3 61 0 87 -1 58 -3z m-246 -80 c-3 -10 -5 -4 -5 12 0 17 2 24
5 18 2 -7 2 -21 0 -30z m-1840 -10 c-3 -10 -5 -4 -5 12 0 17 2 24 5 18 2 -7 2
-21 0 -30z m1577 20 c-83 -3 -92 -6 -102 -26 -7 -15 -11 -17 -11 -6 -2 32 21
39 114 37 l90 -2 -91 -3z m-422 -10 c-40 -2 -103 -2 -140 0 -37 2 -4 3 73 3
77 0 107 -2 67 -3z m2017 -95 c1 -58 -3 -73 -27 -110 -16 -24 -36 -61 -45 -83
l-16 -40 0 98 c-1 89 -3 98 -18 93 -109 -32 -123 -7 -30 55 34 23 75 53 92 67
27 23 29 23 36 6 4 -11 8 -49 8 -86z m-1459 31 c-47 -4 -125 -7 -174 -8 -72
-1 -91 -4 -102 -18 -7 -10 -14 -13 -14 -7 -1 33 46 40 260 41 l115 0 -85 -8z
m428 -31 c-2 -19 -10 -23 -43 -26 -33 -2 -43 2 -58 23 l-18 25 61 0 c58 0 61
-1 58 -22z m-1815 5 c-29 -2 -78 -2 -110 0 -32 2 -8 3 52 3 61 0 87 -1 58 -3z
m-298 -12 c3 -5 19 -13 36 -16 l31 -7 -61 -35 c-34 -19 -69 -32 -77 -29 -9 4
-14 20 -14 51 l0 45 39 0 c22 0 42 -4 46 -9z m1051 -19 c-4 -3 -14 2 -24 12
-16 18 -16 18 6 6 13 -6 21 -14 18 -18z m622 21 c-17 -3 -28 -11 -28 -20 0 -9
-3 -14 -6 -10 -15 14 7 37 33 36 l28 -2 -27 -4z m361 -42 c19 -17 30 -31 24
-31 -6 0 -30 18 -54 41 -24 22 -35 36 -24 30 11 -5 35 -23 54 -40z m-531 32
c-10 -2 -26 -2 -35 0 -10 3 -2 5 17 5 19 0 27 -2 18 -5z m2081 -27 c-2 -2 -15
-9 -29 -15 -24 -11 -24 -11 -6 3 16 13 49 24 35 12z m101 0 c0 -2 -19 -19 -42
-36 l-43 -32 40 36 c40 36 45 39 45 32z m-2547 -13 c-46 -2 -120 -2 -165 0
-46 1 -9 3 82 3 91 0 128 -2 83 -3z m2720 0 c-24 -2 -62 -2 -85 0 -24 2 -5 4
42 4 47 0 66 -2 43 -4z m-1946 -9 c-3 -3 -12 -4 -19 -1 -8 3 -5 6 6 6 11 1 17
-2 13 -5z m-384 -11 c-7 -2 -19 -2 -25 0 -7 3 -2 5 12 5 14 0 19 -2 13 -5z
m1152 -7 c19 -8 35 -18 35 -21 0 -3 -10 0 -22 7 -16 9 -94 15 -258 18 l-235 6
223 2 c175 2 230 -1 257 -12z m202 -58 c-2 -13 -4 -3 -4 22 0 25 2 35 4 23 2
-13 2 -33 0 -45z m416 55 c-7 -2 -19 -2 -25 0 -7 3 -2 5 12 5 14 0 19 -2 13
-5z m197 -36 c13 -5 13 -6 -1 -6 -9 -1 -24 9 -35 22 -19 22 -19 22 1 6 11 -9
27 -19 35 -22z m-1030 13 c11 -7 5 -10 -25 -10 -22 0 -51 -3 -65 -5 -22 -5
-21 -3 5 9 35 18 64 20 85 6z m1270 3 c-8 -3 -24 -13 -35 -22 -20 -16 -20 -16
-1 7 11 12 26 22 35 21 14 0 14 -1 1 -6z m-2275 -18 l80 -14 -75 3 c-42 1 -85
8 -95 14 -26 15 -12 14 90 -3z m840 -1 c-35 -27 -96 -55 -108 -50 -7 3 -6 5 3
5 8 1 35 15 60 31 46 31 81 41 45 14z m323 -9 c59 -27 72 -50 72 -125 0 -66
-18 -58 -54 26 -18 40 -42 76 -64 94 -44 36 -25 38 46 5z m767 -1 c9 -15 12
-23 6 -20 -11 7 -35 46 -28 46 3 0 12 -12 22 -26z m205 23 c0 -2 -10 -12 -22
-23 l-23 -19 19 23 c18 21 26 27 26 19z m-3887 -14 c-35 -2 -91 -2 -125 0 -35
2 -7 3 62 3 69 0 97 -1 63 -3z m400 0 c-13 -2 -35 -2 -50 0 -16 2 -5 4 22 4
28 0 40 -2 28 -4z m2115 0 c-10 -2 -26 -2 -35 0 -10 3 -2 5 17 5 19 0 27 -2
18 -5z m689 -105 c-2 -24 -4 -7 -4 37 0 44 2 63 4 43 2 -21 2 -57 0 -80z
m-772 52 c27 -27 45 -50 39 -50 -5 0 -29 20 -53 44 -29 30 -55 46 -75 49 -30
4 -30 4 4 5 31 2 43 -5 85 -48z m722 -62 c-2 -24 -4 -7 -4 37 0 44 2 63 4 43
2 -21 2 -57 0 -80z m-4347 92 c8 -5 11 -10 5 -10 -5 0 -17 5 -25 10 -8 5 -10
10 -5 10 6 0 17 -5 25 -10z m910 0 c-8 -5 -19 -10 -25 -10 -5 0 -3 5 5 10 8 5
20 10 25 10 6 0 3 -5 -5 -10z m751 -7 c13 -16 12 -17 -3 -4 -10 7 -18 15 -18
17 0 8 8 3 21 -13z m-1334 1 c-3 -3 -12 -4 -19 -1 -8 3 -5 6 6 6 11 1 17 -2
13 -5z m3578 -1 l-80 -4 -70 -67 c-68 -66 -59 -48 19 36 l40 42 86 -2 85 -2
-80 -3z m-3616 -6 c-2 -2 -17 -11 -34 -21 l-30 -17 24 20 c13 12 28 21 34 21
6 0 8 -1 6 -3z m995 -12 c-12 -9 -43 -14 -85 -15 -73 0 -83 -4 -68 -31 7 -14
21 -19 55 -19 l45 0 -3 -57 -3 -58 -85 -7 c-47 -3 -122 -9 -167 -13 l-83 -6 0
105 c0 74 4 106 13 109 6 3 99 6 206 6 173 1 193 -1 175 -14z m899 -5 c-3 -12
-8 -19 -11 -16 -5 6 5 36 12 36 2 0 2 -9 -1 -20z m1369 -8 c11 -13 10 -14 -9
-4 -12 7 -52 13 -90 14 -67 1 -67 1 -18 7 65 8 101 3 117 -17z m-3585 12 c-3
-3 -12 -4 -19 -1 -8 3 -5 6 6 6 11 1 17 -2 13 -5z m182 -23 c-6 -2 -18 4 -27
13 -15 15 -15 15 10 4 15 -7 23 -15 17 -17z m2258 7 c-3 -8 -6 -5 -6 6 -1 11
2 17 5 13 3 -3 4 -12 1 -19z m2508 -4 c9 -15 12 -23 6 -20 -11 7 -35 46 -28
46 3 0 12 -12 22 -26z m-4880 -4 c10 -11 16 -20 13 -20 -3 0 -13 9 -23 20 -10
11 -16 20 -13 20 3 0 13 -9 23 -20z m348 3 c-7 -2 -21 -2 -30 0 -10 3 -4 5 12
5 17 0 24 -2 18 -5z m3545 -2 c-37 -3 -73 -12 -80 -18 -6 -7 -17 -13 -22 -13
-6 0 0 9 14 20 20 15 39 19 90 18 l65 -1 -67 -6z m-3708 -5 c0 -2 -8 -10 -17
-17 -16 -13 -17 -12 -4 4 13 16 21 21 21 13z m-257 -23 c3 -5 -16 -7 -41 -5
-73 5 -82 10 -20 11 31 0 59 -2 61 -6z m3620 -70 c92 -134 89 -140 -8 -13
l-57 75 -72 6 -71 5 77 2 77 2 54 -77z m-3503 23 c0 -12 -5 -7 -19 24 -11 24
-11 24 3 6 9 -11 16 -24 16 -30z m449 -13 c-10 -31 -24 -75 -30 -96 -6 -21
-12 -37 -14 -35 -6 6 30 139 44 166 20 38 21 24 0 -35z m1852 39 c-5 -9 -19
-26 -32 -37 -17 -15 -15 -10 7 17 32 41 40 48 25 20z m2838 16 c-2 -2 -17 -14
-34 -28 l-30 -25 24 28 c14 15 29 27 34 27 6 0 8 -1 6 -2z m-4994 -83 c-37
-41 -70 -75 -73 -75 -3 0 10 17 28 38 86 92 104 112 108 112 2 0 -26 -34 -63
-75z m163 68 c-16 -2 -40 -2 -55 0 -16 2 -3 4 27 4 30 0 43 -2 28 -4z m1167
-3 c-3 -5 -12 -10 -18 -10 -7 0 -6 4 3 10 19 12 23 12 15 0z m122 -27 c-3 -10
-5 -4 -5 12 0 17 2 24 5 18 2 -7 2 -21 0 -30z m3750 15 c-3 -8 -6 -5 -6 6 -1
11 2 17 5 13 3 -3 4 -12 1 -19z m-1516 -9 c-30 -5 -63 -17 -74 -27 -11 -9 -48
-61 -84 -114 -35 -54 -66 -98 -69 -98 -6 0 40 81 87 150 58 86 75 98 154 98
36 0 35 -1 -14 -9z m969 -9 c6 -11 8 -20 6 -20 -3 0 -10 9 -16 20 -6 11 -8 20
-6 20 3 0 10 -9 16 -20z m-3380 6 c0 -2 -7 -7 -16 -10 -8 -3 -12 -2 -9 4 6 10
25 14 25 6z m3280 -16 c6 -11 8 -20 6 -20 -3 0 -10 9 -16 20 -6 11 -8 20 -6
20 3 0 10 -9 16 -20z m-1261 -30 c38 -47 33 -53 -9 -10 -23 23 -42 31 -92 38
l-63 10 66 1 c65 1 66 1 98 -39z m-3616 13 c-7 -2 -21 -2 -30 0 -10 3 -4 5 12
5 17 0 24 -2 18 -5z m2857 -3 c18 -12 2 -12 -25 0 -13 6 -15 9 -5 9 8 0 22 -4
30 -9z m2350 -40 c-23 -27 -44 -50 -47 -50 -3 0 14 23 37 50 23 28 44 50 47
50 3 0 -14 -22 -37 -50z m-5155 30 c3 -6 -1 -7 -9 -4 -18 7 -21 14 -7 14 6 0
13 -4 16 -10z m5330 3 c-41 -3 -57 -11 -90 -41 l-40 -37 40 43 c37 39 42 42
90 40 l50 -2 -50 -3z m-2500 -55 l90 -2 -80 -5 c-80 -6 -124 4 -141 31 -4 6 3
4 17 -5 17 -12 48 -17 114 -19z m1155 20 c-73 -11 -76 -12 -110 -34 -14 -9
-10 -3 10 15 31 28 40 31 100 30 l65 -2 -65 -9z m-2112 -5 c-16 -2 -40 -2 -55
0 -16 2 -3 4 27 4 30 0 43 -2 28 -4z m265 0 c-13 -2 -33 -2 -45 0 -13 2 -3 4
22 4 25 0 35 -2 23 -4z m-2103 -38 c0 -5 -5 -3 -10 5 -5 8 -10 20 -10 25 0 6
5 3 10 -5 5 -8 10 -19 10 -25z m3312 -270 c2 -154 0 -253 -3 -220 -7 59 -10
544 -3 515 1 -8 4 -141 6 -295z m2105 258 c-3 -10 -5 -2 -5 17 0 19 2 27 5 18
2 -10 2 -26 0 -35z m-5524 30 c-7 -2 -21 -2 -30 0 -10 3 -4 5 12 5 17 0 24 -2
18 -5z m1410 0 c-13 -2 -35 -2 -50 0 -16 2 -5 4 22 4 28 0 40 -2 28 -4z m2239
-60 c59 -92 100 -163 94 -163 -5 0 -56 76 -119 177 -26 40 -29 42 -84 46 l-58
3 62 2 62 2 43 -67z m-3602 37 c6 -11 9 -20 8 -20 -2 0 -11 9 -21 20 -9 11
-13 20 -7 20 5 0 14 -9 20 -20z m433 13 c-13 -2 -35 -2 -50 0 -16 2 -5 4 22 4
28 0 40 -2 28 -4z m805 0 c-16 -2 -40 -2 -55 0 -16 2 -3 4 27 4 30 0 43 -2 28
-4z m1850 0 c-15 -2 -42 -2 -60 0 -18 2 -6 4 27 4 33 0 48 -2 33 -4z m1352
-13 c0 -15 -7 -20 -27 -20 l-28 1 24 19 c29 25 31 25 31 0z m-3363 4 c-3 -3
-12 -4 -19 -1 -8 3 -5 6 6 6 11 1 17 -2 13 -5z m1763 -20 c0 -2 -9 0 -20 6
-11 6 -20 13 -20 16 0 2 9 0 20 -6 11 -6 20 -13 20 -16z m2080 6 c6 -11 8 -20
6 -20 -3 0 -10 9 -16 20 -6 11 -8 20 -6 20 3 0 10 -9 16 -20z m443 13 c-7 -2
-21 -2 -30 0 -10 3 -4 5 12 5 17 0 24 -2 18 -5z m174 -70 c-2 -16 -4 -3 -4 27
0 30 2 43 4 28 2 -16 2 -40 0 -55z m-5242 -2 c-25 -34 -48 -61 -51 -61 -2 0
17 29 43 64 27 35 50 62 52 60 2 -1 -18 -30 -44 -63z m618 62 c-7 -2 -19 -2
-25 0 -7 3 -2 5 12 5 14 0 19 -2 13 -5z m3227 -353 c6 -113 18 -254 25 -315
18 -133 18 -161 0 -80 -17 77 -43 394 -49 600 -5 200 7 94 24 -205z m-1220
293 c0 -7 -39 17 -46 28 -3 6 5 3 20 -6 14 -10 26 -19 26 -22z m-2058 -30 c2
-32 3 -61 1 -64 -2 -4 -20 -3 -41 3 l-39 10 1 54 1 54 37 0 36 0 4 -57z m338
53 c0 -7 -153 -55 -197 -62 l-43 -7 0 37 0 36 120 0 c66 0 120 -2 120 -4z
m2830 -2 c-8 -1 -41 -6 -73 -9 l-58 -7 -55 -106 c-58 -113 -63 -105 -9 14 48
104 60 114 143 113 37 -1 60 -3 52 -5z m174 -9 c-4 -8 -8 -15 -10 -15 -2 0 -4
7 -4 15 0 8 4 15 10 15 5 0 7 -7 4 -15z m-4414 -141 c-33 -391 -38 -439 -39
-369 -1 106 36 522 46 511 2 -2 -1 -66 -7 -142z m1773 139 c-18 -2 -48 -2 -65
0 -18 2 -4 4 32 4 36 0 50 -2 33 -4z m1501 -32 c-3 -3 -15 6 -27 18 l-22 24
27 -19 c14 -10 24 -21 22 -23z m512 -11 l26 -45 -38 42 c-35 39 -44 43 -94 46
-44 3 -41 4 13 3 l68 -1 25 -45z m691 28 c-3 -8 -6 -5 -6 6 -1 11 2 17 5 13 3
-3 4 -12 1 -19z m173 -58 l0 -80 -61 0 c-51 0 -60 3 -55 15 3 9 13 41 22 73
21 74 20 72 60 72 l34 0 0 -80z m1027 -27 c-2 -21 -4 -4 -4 37 0 41 2 58 4 38
2 -21 2 -55 0 -75z m-5449 62 c-3 -3 -9 2 -12 12 -6 14 -5 15 5 6 7 -7 10 -15
7 -18z m1177 15 c-3 -5 -12 -10 -18 -10 -7 0 -6 4 3 10 19 12 23 12 15 0z
m1230 0 c-3 -5 -12 -10 -18 -10 -7 0 -6 4 3 10 19 12 23 12 15 0z m-1972 -7
c-13 -2 -35 -2 -50 0 -16 2 -5 4 22 4 28 0 40 -2 28 -4z m3747 -343 c6 -96 12
-209 15 -250 l4 -75 -14 85 c-8 48 -16 191 -18 330 -2 135 -3 209 -1 165 2
-44 8 -159 14 -255z m-3850 326 c0 -2 -8 -10 -17 -17 -16 -13 -17 -12 -4 4 13
16 21 21 21 13z m790 0 c0 -2 -7 -7 -16 -10 -8 -3 -12 -2 -9 4 6 10 25 14 25
6z m2878 -13 c-51 -4 -58 -7 -79 -37 -12 -19 -31 -38 -40 -44 -10 -6 -1 11 19
38 l37 50 60 -2 60 -2 -57 -3z m1549 -145 c-2 -29 -3 -6 -3 52 0 58 1 81 3 53
2 -29 2 -77 0 -105z m-5517 97 c0 -5 -5 -3 -10 5 -5 8 -10 20 -10 25 0 6 5 3
10 -5 5 -8 10 -19 10 -25z m1030 31 c0 -2 -7 -7 -16 -10 -8 -3 -12 -2 -9 4 6
10 25 14 25 6z m1145 -6 c3 -6 -1 -7 -9 -4 -18 7 -21 14 -7 14 6 0 13 -4 16
-10z m1112 4 c-3 -3 -12 -4 -19 -1 -8 3 -5 6 6 6 11 1 17 -2 13 -5z m-3376
-31 c12 -16 12 -16 -1 -6 -8 6 -28 13 -45 16 l-30 4 31 2 c20 0 37 -6 45 -16z
m3064 -23 c21 -22 37 -40 34 -40 -3 0 -23 18 -44 40 -21 22 -37 40 -34 40 3 0
23 -18 44 -40z m559 18 c28 -46 116 -221 113 -224 -2 -2 -23 31 -47 74 -101
180 -83 161 -148 165 l-57 3 62 2 c55 2 64 -1 77 -20z m-2821 -5 c-13 -2 -35
-2 -50 0 -16 2 -5 4 22 4 28 0 40 -2 28 -4z m237 3 c0 -2 -7 -7 -16 -10 -8 -3
-12 -2 -9 4 6 10 25 14 25 6z m155 -69 c46 -80 47 -78 -39 -70 -68 5 -76 4
-76 -11 0 -10 -6 -16 -12 -14 -15 5 -45 124 -34 135 8 9 95 20 116 15 8 -2 28
-26 45 -55z m-802 34 c-23 -4 -47 -11 -55 -17 -8 -5 -5 -1 5 9 12 10 33 17 56
16 l36 -2 -42 -6z m1084 2 c-20 -2 -52 -2 -70 0 -17 2 0 4 38 4 39 0 53 -2 32
-4z m628 -43 c-14 -27 -28 -50 -30 -50 -3 0 6 23 20 50 14 28 28 50 30 50 3 0
-6 -22 -20 -50z m382 3 c-3 -10 -5 -2 -5 17 0 19 2 27 5 18 2 -10 2 -26 0 -35z
m-2367 2 c0 -5 -5 -3 -10 5 -5 8 -10 20 -10 25 0 6 5 3 10 -5 5 -8 10 -19 10
-25z m1160 16 c0 -11 3 -28 6 -38 3 -10 -2 -7 -10 7 -18 29 -20 50 -6 50 6 0
10 -9 10 -19z m-673 -58 c-2 -16 -4 -5 -4 22 0 28 2 40 4 28 2 -13 2 -35 0
-50z m1980 25 c-3 -7 -5 -2 -5 12 0 14 2 19 5 13 2 -7 2 -19 0 -25z m130 -10
c-3 -7 -5 -2 -5 12 0 14 2 19 5 13 2 -7 2 -19 0 -25z m1806 25 c-29 -2 -78 -2
-110 0 -32 2 -8 3 52 3 61 0 87 -1 58 -3z m1054 -105 c-2 -24 -4 -7 -4 37 0
44 2 63 4 43 2 -21 2 -57 0 -80z m-5257 98 c0 -2 -8 -10 -17 -17 -16 -13 -17
-12 -4 4 13 16 21 21 21 13z m1323 -11 c-3 -9 -8 -14 -10 -11 -3 3 -2 9 2 15
9 16 15 13 8 -4z m-920 -2 c-7 -2 -19 -2 -25 0 -7 3 -2 5 12 5 14 0 19 -2 13
-5z m246 -55 c1 -33 -22 -38 -51 -11 -22 20 -23 33 -3 33 8 0 20 10 26 22 12
22 12 22 20 3 4 -11 8 -32 8 -47z m2638 15 c32 -54 22 -56 -13 -3 -25 37 -29
39 -88 43 l-61 4 68 -1 69 -1 25 -42z m-3599 -3 l14 -25 -18 22 c-11 12 -30
24 -44 26 -21 4 -21 5 4 4 19 -1 34 -10 44 -27z m3379 -122 c-2 -29 -3 -6 -3
52 0 58 1 81 3 53 2 -29 2 -77 0 -105z m-3107 123 c-5 -11 -15 -23 -21 -27 -6
-3 -3 5 6 20 20 30 30 35 15 7z m2803 12 c-13 -2 -35 -2 -50 0 -16 2 -5 4 22
4 28 0 40 -2 28 -4z m1455 0 c-32 -2 -86 -2 -120 0 -35 2 -9 3 57 3 66 0 94
-1 63 -3z m-3160 -10 c-16 -2 -40 -2 -55 0 -16 2 -3 4 27 4 30 0 43 -2 28 -4z
m233 -16 c-10 -9 -11 -8 -5 6 3 10 9 15 12 12 3 -3 0 -11 -7 -18z m462 0 c3
-8 -1 -14 -8 -14 -7 0 -11 6 -8 14 3 7 6 13 8 13 2 0 5 -6 8 -13z m525 6 c-10
-2 -26 -2 -35 0 -10 3 -2 5 17 5 19 0 27 -2 18 -5z m165 -10 c-7 -2 -21 -2
-30 0 -10 3 -4 5 12 5 17 0 24 -2 18 -5z m-2166 -85 c-2 -18 -4 -6 -4 27 0 33
2 48 4 33 2 -15 2 -42 0 -60z m786 75 c-7 -2 -21 -2 -30 0 -10 3 -4 5 12 5 17
0 24 -2 18 -5z m1545 0 c-16 -2 -40 -2 -55 0 -16 2 -3 4 27 4 30 0 43 -2 28
-4z m-2158 -18 c0 -8 -4 -15 -10 -15 -5 0 -7 7 -4 15 4 8 8 15 10 15 2 0 4 -7
4 -15z m543 8 c-7 -2 -21 -2 -30 0 -10 3 -4 5 12 5 17 0 24 -2 18 -5z m1740 0
c-13 -2 -33 -2 -45 0 -13 2 -3 4 22 4 25 0 35 -2 23 -4z m-1820 -10 c-7 -2
-19 -2 -25 0 -7 3 -2 5 12 5 14 0 19 -2 13 -5z m826 -15 c-11 -21 -15 -22 -25
-6 -5 7 -3 8 6 3 9 -6 12 -4 8 7 -4 8 0 15 7 15 10 0 11 -5 4 -19z m60 -15
c-12 -21 -29 -45 -37 -53 -7 -8 0 9 18 38 17 28 34 52 37 52 2 0 -5 -17 -18
-37z m2424 30 c-35 -2 -91 -2 -125 0 -35 2 -7 3 62 3 69 0 97 -1 63 -3z
m-3385 -10 c-10 -2 -26 -2 -35 0 -10 3 -2 5 17 5 19 0 27 -2 18 -5z m265 0
c-7 -2 -19 -2 -25 0 -7 3 -2 5 12 5 14 0 19 -2 13 -5z m1270 0 c-7 -2 -21 -2
-30 0 -10 3 -4 5 12 5 17 0 24 -2 18 -5z m922 -35 l28 -43 -35 33 c-24 23 -44
32 -68 33 -19 0 -44 4 -55 9 -14 6 -2 9 41 9 l61 1 28 -42z m-2522 25 c-7 -2
-21 -2 -30 0 -10 3 -4 5 12 5 17 0 24 -2 18 -5z m270 0 c-7 -2 -21 -2 -30 0
-10 3 -4 5 12 5 17 0 24 -2 18 -5z m1405 0 c-10 -2 -26 -2 -35 0 -10 3 -2 5
17 5 19 0 27 -2 18 -5z m-1505 -10 c-7 -2 -19 -2 -25 0 -7 3 -2 5 12 5 14 0
19 -2 13 -5z m310 -8 c-3 -9 -8 -14 -10 -11 -3 3 -2 9 2 15 9 16 15 13 8 -4z
m1290 8 c-7 -2 -21 -2 -30 0 -10 3 -4 5 12 5 17 0 24 -2 18 -5z m2754 -30 c-3
-10 -5 -4 -5 12 0 17 2 24 5 18 2 -7 2 -21 0 -30z m-5684 20 c-7 -2 -21 -2
-30 0 -10 3 -4 5 12 5 17 0 24 -2 18 -5z m1255 0 c-10 -2 -28 -2 -40 0 -13 2
-5 4 17 4 22 1 32 -1 23 -4z m1770 0 c-10 -2 -26 -2 -35 0 -10 3 -2 5 17 5 19
0 27 -2 18 -5z m-2974 -12 c4 -5 -3 -7 -14 -4 -23 6 -26 13 -6 13 8 0 17 -4
20 -9z m1129 2 c-7 -2 -21 -2 -30 0 -10 3 -4 5 12 5 17 0 24 -2 18 -5z m1925
0 c-10 -2 -26 -2 -35 0 -10 3 -2 5 17 5 19 0 27 -2 18 -5z m-1995 -10 c-7 -2
-21 -2 -30 0 -10 3 -4 5 12 5 17 0 24 -2 18 -5z m2070 0 c-7 -2 -19 -2 -25 0
-7 3 -2 5 12 5 14 0 19 -2 13 -5z m-1563 -23 c-6 -11 -13 -20 -16 -20 -2 0 0
9 6 20 6 11 13 20 16 20 2 0 0 -9 -6 -20z m-67 3 c-7 -2 -19 -2 -25 0 -7 3 -2
5 12 5 14 0 19 -2 13 -5z m2854 -90 c-2 -21 -4 -6 -4 32 0 39 2 55 4 38 2 -18
2 -50 0 -70z m-3121 72 c4 -9 19 -15 40 -15 l34 0 0 -54 c0 -29 3 -68 6 -85 4
-20 3 -31 -5 -31 -7 0 -11 22 -11 60 l0 60 -31 0 -32 0 6 -76 c5 -49 3 -73 -3
-69 -6 3 -10 19 -10 36 0 26 -3 29 -30 29 -27 0 -30 -3 -30 -33 0 -49 -9 -51
-46 -9 -31 35 -33 41 -34 114 l0 77 38 4 c83 8 103 7 108 -8z m1269 -1 c-26
-20 -55 -36 -55 -30 0 5 63 46 70 46 3 -1 -4 -8 -15 -16z m3102 -26 c-3 -7 -5
-2 -5 12 0 14 2 19 5 13 2 -7 2 -19 0 -25z m-4217 12 c8 -5 11 -10 5 -10 -5 0
-17 5 -25 10 -8 5 -10 10 -5 10 6 0 17 -5 25 -10z m627 -12 c-3 -8 -6 -5 -6 6
-1 11 2 17 5 13 3 -3 4 -12 1 -19z m64 -1 c-10 -9 -11 -8 -5 6 3 10 9 15 12
12 3 -3 0 -11 -7 -18z m-1091 -17 c0 -18 -3 -19 -22 -9 -22 12 -22 12 -3 20
11 4 21 8 23 8 1 1 2 -8 2 -19z m4657 -2 c-3 -8 -6 -5 -6 6 -1 11 2 17 5 13 3
-3 4 -12 1 -19z m-4170 6 c-3 -3 -12 -4 -19 -1 -8 3 -5 6 6 6 11 1 17 -2 13
-5z m57 -38 c-3 -15 -8 -25 -11 -23 -2 3 -1 17 3 31 3 15 8 25 11 23 2 -3 1
-17 -3 -31z m-734 -26 c0 -43 -3 -50 -20 -50 -17 0 -20 7 -20 43 0 46 5 57 27
57 9 0 13 -15 13 -50z m580 -10 c0 -27 -4 -50 -10 -50 -5 0 -10 23 -10 50 0
28 5 50 10 50 6 0 10 -22 10 -50z m61 -27 c-8 -14 -10 -9 -10 27 1 42 1 43 10
18 7 -18 7 -33 0 -45z m4216 45 c-3 -8 -6 -5 -6 6 -1 11 2 17 5 13 3 -3 4 -12
1 -19z m-40 -20 c-3 -7 -5 -2 -5 12 0 14 2 19 5 13 2 -7 2 -19 0 -25z m-4631
-3 c11 -27 -1 -33 -19 -9 -16 21 -16 24 -2 24 9 0 18 -7 21 -15z m1727 -22
c-13 -2 -33 -2 -45 0 -13 2 -3 4 22 4 25 0 35 -2 23 -4z m450 0 c-18 -2 -48
-2 -65 0 -18 2 -4 4 32 4 36 0 50 -2 33 -4z m-560 -10 c-7 -2 -19 -2 -25 0 -7
3 -2 5 12 5 14 0 19 -2 13 -5z m675 0 c-10 -2 -28 -2 -40 0 -13 2 -5 4 17 4
22 1 32 -1 23 -4z m2349 -15 c-3 -8 -6 -5 -6 6 -1 11 2 17 5 13 3 -3 4 -12 1
-19z m-5079 -5 c-21 -2 -55 -2 -75 0 -21 2 -4 4 37 4 41 0 58 -2 38 -4z m210
0 c-10 -2 -28 -2 -40 0 -13 2 -5 4 17 4 22 1 32 -1 23 -4z m721 3 c-2 -2 -15
-9 -29 -15 -24 -11 -24 -11 -6 3 16 13 49 24 35 12z m2888 -73 c-2 -16 -4 -3
-4 27 0 30 2 43 4 28 2 -16 2 -40 0 -55z m-3959 60 c-10 -2 -28 -2 -40 0 -13
2 -5 4 17 4 22 1 32 -1 23 -4z m4272 -2 c0 -14 -35 -23 -64 -15 -41 10 -30 24
19 24 25 0 45 -4 45 -9z m-4377 -8 c-7 -2 -19 -2 -25 0 -7 3 -2 5 12 5 14 0
19 -2 13 -5z m-70 -10 c-7 -2 -19 -2 -25 0 -7 3 -2 5 12 5 14 0 19 -2 13 -5z
m1187 3 c0 -2 -8 -10 -17 -17 -16 -13 -17 -12 -4 4 13 16 21 21 21 13z m-1483
-38 c-3 -7 -5 -2 -5 12 0 14 2 19 5 13 2 -7 2 -19 0 -25z m246 25 c-7 -2 -19
-2 -25 0 -7 3 -2 5 12 5 14 0 19 -2 13 -5z m-46 -9 c-3 -3 -12 -4 -19 -1 -8 3
-5 6 6 6 11 1 17 -2 13 -5z m949 -32 c-5 -4 -66 26 -66 33 0 3 16 -3 35 -12
19 -9 33 -18 31 -21z m1501 16 c-3 -8 -6 -5 -6 6 -1 11 2 17 5 13 3 -3 4 -12
1 -19z m2170 16 c-3 -3 -12 -4 -19 -1 -8 3 -5 6 6 6 11 1 17 -2 13 -5z m-2697
-82 c16 -14 19 -20 8 -16 -9 3 -34 27 -54 52 -24 31 -27 37 -8 17 16 -16 40
-40 54 -53z m913 71 c-24 -2 -62 -2 -85 0 -24 2 -5 4 42 4 47 0 66 -2 43 -4z
m-2210 -10 c-7 -2 -21 -2 -30 0 -10 3 -4 5 12 5 17 0 24 -2 18 -5z m2475 0
c-21 -2 -55 -2 -75 0 -21 2 -4 4 37 4 41 0 58 -2 38 -4z m1415 0 c-7 -2 -19
-2 -25 0 -7 3 -2 5 12 5 14 0 19 -2 13 -5z m-3970 -10 c-7 -2 -21 -2 -30 0
-10 3 -4 5 12 5 17 0 24 -2 18 -5z m2710 0 c-13 -2 -33 -2 -45 0 -13 2 -3 4
22 4 25 0 35 -2 23 -4z m1210 0 c-7 -2 -19 -2 -25 0 -7 3 -2 5 12 5 14 0 19
-2 13 -5z m424 1 c-3 -3 -12 -4 -19 -1 -8 3 -5 6 6 6 11 1 17 -2 13 -5z
m-4450 -10 c-3 -3 -12 -4 -19 -1 -8 3 -5 6 6 6 11 1 17 -2 13 -5z m-89 -11
c-10 -2 -26 -2 -35 0 -10 3 -2 5 17 5 19 0 27 -2 18 -5z m4449 1 c-3 -3 -12
-4 -19 -1 -8 3 -5 6 6 6 11 1 17 -2 13 -5z m-4519 -11 c-10 -2 -28 -2 -40 0
-13 2 -5 4 17 4 22 1 32 -1 23 -4z m2225 0 c-45 -2 -122 -2 -170 0 -48 1 -11
3 82 3 94 0 133 -2 88 -3z m2254 1 c-3 -3 -12 -4 -19 -1 -8 3 -5 6 6 6 11 1
17 -2 13 -5z m-4584 -11 c-7 -2 -21 -2 -30 0 -10 3 -4 5 12 5 17 0 24 -2 18
-5z m2580 0 c-13 -2 -33 -2 -45 0 -13 2 -3 4 22 4 25 0 35 -2 23 -4z m-3346
-95 c-2 -18 -4 -4 -4 32 0 36 2 50 4 33 2 -18 2 -48 0 -65z m661 85 c-10 -2
-26 -2 -35 0 -10 3 -2 5 17 5 19 0 27 -2 18 -5z m922 3 c0 -2 -8 -10 -17 -17
-16 -13 -17 -12 -4 4 13 16 21 21 21 13z m1928 -3 c-10 -2 -28 -2 -40 0 -13 2
-5 4 17 4 22 1 32 -1 23 -4z m1539 1 c-3 -3 -12 -4 -19 -1 -8 3 -5 6 6 6 11 1
17 -2 13 -5z m-4474 -11 c-7 -2 -21 -2 -30 0 -10 3 -4 5 12 5 17 0 24 -2 18
-5z m3020 0 c-7 -2 -19 -2 -25 0 -7 3 -2 5 12 5 14 0 19 -2 13 -5z m1144 -30
c-3 -10 -5 -4 -5 12 0 17 2 24 5 18 2 -7 2 -21 0 -30z m30 -15 c-2 -13 -4 -5
-4 17 -1 22 1 32 4 23 2 -10 2 -28 0 -40z m236 45 c-7 -2 -19 -2 -25 0 -7 3
-2 5 12 5 14 0 19 -2 13 -5z m-3118 -21 c-3 -3 -11 0 -18 7 -9 10 -8 11 6 5
10 -3 15 -9 12 -12z m42 -8 c-3 -3 -12 -4 -19 -1 -8 3 -5 6 6 6 11 1 17 -2 13
-5z m151 -11 c-27 -2 -69 -2 -95 0 -27 2 -5 3 47 3 52 0 74 -1 48 -3z m729 1
c-3 -3 -12 -4 -19 -1 -8 3 -5 6 6 6 11 1 17 -2 13 -5z m281 -1 c-21 -2 -57 -2
-80 0 -24 2 -7 4 37 4 44 0 63 -2 43 -4z m-2858 -13 c0 -5 -8 -10 -17 -10 -15
0 -16 2 -3 10 19 12 20 12 20 0z m4467 -32 c-3 -7 -5 -2 -5 12 0 14 2 19 5 13
2 -7 2 -19 0 -25z m57 16 c3 -8 2 -12 -4 -9 -6 3 -10 10 -10 16 0 14 7 11 14
-7z m-3226 -19 c-3 -3 -9 2 -12 12 -6 14 -5 15 5 6 7 -7 10 -15 7 -18z m-463
5 c-88 -4 -239 -7 -335 -7 l-175 1 130 6 c72 3 222 6 335 6 l205 0 -160 -6z
m605 -10 c-8 -5 -22 -9 -30 -9 -10 0 -8 3 5 9 27 12 43 12 25 0z m1407 -22
c-3 -7 -5 -2 -5 12 0 14 2 19 5 13 2 -7 2 -19 0 -25z m-1900 -15 c-3 -10 -5
-4 -5 12 0 17 2 24 5 18 2 -7 2 -21 0 -30z m76 30 c-13 -2 -33 -2 -45 0 -13 2
-3 4 22 4 25 0 35 -2 23 -4z m-1026 -9 c-3 -3 -12 -4 -19 -1 -8 3 -5 6 6 6 11
1 17 -2 13 -5z m3476 -11 c-7 -2 -19 -2 -25 0 -7 3 -2 5 12 5 14 0 19 -2 13
-5z m-60 -10 c-7 -2 -21 -2 -30 0 -10 3 -4 5 12 5 17 0 24 -2 18 -5z m-3300
-10 c-7 -2 -21 -2 -30 0 -10 3 -4 5 12 5 17 0 24 -2 18 -5z m3240 0 c-7 -2
-21 -2 -30 0 -10 3 -4 5 12 5 17 0 24 -2 18 -5z m-3165 -10 c-10 -2 -26 -2
-35 0 -10 3 -2 5 17 5 19 0 27 -2 18 -5z m915 0 c-7 -2 -21 -2 -30 0 -10 3 -4
5 12 5 17 0 24 -2 18 -5z m2154 1 c-3 -3 -12 -4 -19 -1 -8 3 -5 6 6 6 11 1 17
-2 13 -5z m-2832 -24 c190 -18 395 -12 575 16 25 4 43 4 39 1 -11 -13 -214
-37 -329 -40 l-120 -2 -2 -30 -1 -30 -4 30 -4 31 -152 12 c-84 7 -168 17 -187
22 -38 10 -41 11 185 -10z m1045 0 c0 -26 8 -25 30 2 16 20 20 21 35 8 14 -12
19 -12 22 -2 3 6 20 12 39 12 30 0 34 -3 34 -25 0 -14 5 -25 10 -25 6 0 10 -7
10 -15 0 -23 -475 -23 -484 0 -6 17 18 19 77 6 44 -11 46 -6 10 31 l-27 28
122 0 c115 0 122 -1 122 -20z m207 -27 c-3 -10 -5 -2 -5 17 0 19 2 27 5 18 2
-10 2 -26 0 -35z m280 25 c-3 -8 -6 -5 -6 6 -1 11 2 17 5 13 3 -3 4 -12 1 -19z
m1136 15 c-35 -2 -91 -2 -125 0 -35 2 -7 3 62 3 69 0 97 -1 63 -3z m114 -25
c-3 -8 -6 -5 -6 6 -1 11 2 17 5 13 3 -3 4 -12 1 -19z m-2102 3 c-12 -11 -156
-43 -163 -36 -8 8 -1 11 73 27 84 19 102 21 90 9z m1550 -11 c152 -25 155 -25
156 3 l2 22 4 -22 c3 -17 13 -23 41 -27 20 -2 -15 -2 -78 0 -63 2 -155 12
-205 23 -119 25 -71 26 80 1z m758 3 c-7 -2 -19 -2 -25 0 -7 3 -2 5 12 5 14 0
19 -2 13 -5z m-2506 -40 c-3 -10 -5 -4 -5 12 0 17 2 24 5 18 2 -7 2 -21 0 -30z
m1670 15 c74 -18 117 -22 268 -22 l180 0 -125 -9 c-134 -10 -257 0 -370 29
-69 17 -94 15 -203 -20 -70 -23 -89 -24 -589 -35 -508 -11 -518 -11 -570 9
-63 24 -89 25 -191 5 -43 -8 -160 -17 -265 -19 l-187 -5 155 9 c85 4 207 16
270 25 144 22 167 22 223 -3 45 -20 51 -20 539 -6 567 16 562 15 648 42 84 27
110 27 217 0z m776 15 c-7 -2 -19 -2 -25 0 -7 3 -2 5 12 5 14 0 19 -2 13 -5z
m-75 -10 c-10 -2 -26 -2 -35 0 -10 3 -2 5 17 5 19 0 27 -2 18 -5z m-1385 -10
c-18 -2 -48 -2 -65 0 -18 2 -4 4 32 4 36 0 50 -2 33 -4z m1277 -4 c-25 -4 -65
-7 -90 -7 l-45 1 50 7 c28 4 68 7 90 7 l40 0 -45 -8z m-2837 -26 c-7 -2 -19
-2 -25 0 -7 3 -2 5 12 5 14 0 19 -2 13 -5z m60 -10 c-7 -2 -21 -2 -30 0 -10 3
-4 5 12 5 17 0 24 -2 18 -5z m90 -10 c-13 -2 -35 -2 -50 0 -16 2 -5 4 22 4 28
0 40 -2 28 -4z m-787 -18 c10 -8 15 -14 9 -14 -5 0 -19 6 -29 14 -11 8 -15 15
-10 15 6 0 19 -7 30 -15z"/>
<path d="M7091 2594 c0 -11 3 -14 6 -6 3 7 2 16 -1 19 -3 4 -6 -2 -5 -13z"/>
<path d="M7097 2563 c-3 -5 4 -15 16 -23 21 -12 21 -12 7 6 -8 10 -15 20 -16
22 -1 2 -4 -1 -7 -5z"/>
<path d="M7035 2518 c-41 -39 -66 -95 -54 -123 6 -16 8 -14 8 13 1 44 23 85
63 116 18 14 30 26 25 26 -4 0 -23 -15 -42 -32z"/>
<path d="M7598 2543 c7 -3 16 -2 19 1 4 3 -2 6 -13 5 -11 0 -14 -3 -6 -6z"/>
<path d="M6010 2519 c-7 -11 -10 -23 -7 -25 2 -2 9 7 15 21 14 30 7 33 -8 4z"/>
<path d="M7327 2493 c18 -18 38 -33 45 -33 7 0 4 6 -7 12 -11 6 -31 20 -45 32
-14 11 -11 6 7 -11z"/>
<path d="M6509 2503 c-13 -16 -12 -17 4 -4 16 13 21 21 13 21 -2 0 -10 -8 -17
-17z"/>
<path d="M7398 2453 c7 -3 16 -2 19 1 4 3 -2 6 -13 5 -11 0 -14 -3 -6 -6z"/>
<path d="M6000 2421 c0 -6 4 -13 10 -16 6 -3 7 1 4 9 -7 18 -14 21 -14 7z"/>
<path d="M6515 2379 c4 -6 -1 -20 -12 -31 l-18 -22 27 20 c32 22 34 30 12 38
-9 3 -12 2 -9 -5z"/>
<path d="M6040 2360 c0 -5 5 -10 11 -10 5 0 7 5 4 10 -3 6 -8 10 -11 10 -2 0
-4 -4 -4 -10z"/>
<path d="M7021 2313 c7 -12 24 -27 38 -33 15 -6 22 -8 16 -3 -5 5 -23 19 -39
33 -26 23 -28 23 -15 3z"/>
<path d="M6465 2299 c-4 -6 -5 -12 -2 -15 2 -3 7 2 10 11 7 17 1 20 -8 4z"/>
<path d="M7594 2266 c-3 -8 -4 -23 -2 -33 3 -11 6 -6 9 15 6 34 2 42 -7 18z"/>
<path d="M5790 2241 c-30 -56 9 -150 75 -183 11 -5 5 2 -13 17 -56 46 -78 116
-52 166 6 10 8 19 6 19 -3 0 -10 -9 -16 -19z"/>
<path d="M7168 2243 c7 -3 16 -2 19 1 4 3 -2 6 -13 5 -11 0 -14 -3 -6 -6z"/>
<path d="M6467 2179 c10 -17 32 -40 48 -52 26 -18 25 -15 -7 17 -21 20 -38 43
-38 51 0 8 -5 15 -11 15 -5 0 -2 -14 8 -31z"/>
<path d="M6850 2091 c0 -22 48 -79 80 -96 45 -23 50 -17 5 8 -22 13 -49 40
-62 62 -13 22 -23 34 -23 26z"/>
<path d="M6658 2063 c-22 -26 -41 -64 -34 -71 3 -3 6 -1 6 5 0 6 11 27 25 47
26 39 28 47 3 19z"/>
<path d="M5947 2024 c8 -4 9 -14 3 -35 -8 -28 -1 -71 18 -104 7 -14 0 -26 -34
-57 -24 -22 -44 -45 -44 -50 0 -5 14 7 32 27 17 20 47 45 67 56 20 11 28 18
19 15 -43 -13 -71 113 -32 141 16 12 15 13 -12 12 -16 0 -24 -3 -17 -5z"/>
<path d="M6612 1960 c0 -14 2 -19 5 -12 2 6 2 18 0 25 -3 6 -5 1 -5 -13z"/>
<path d="M5608 1963 c7 -3 16 -2 19 1 4 3 -2 6 -13 5 -11 0 -14 -3 -6 -6z"/>
<path d="M7028 1963 c7 -3 16 -2 19 1 4 3 -2 6 -13 5 -11 0 -14 -3 -6 -6z"/>
<path d="M7471 1952 c-17 -33 -13 -67 12 -88 22 -19 22 -19 5 2 -21 24 -23 65
-6 82 6 6 9 14 6 18 -4 3 -11 -3 -17 -14z"/>
<path d="M7060 1934 c-6 -14 -9 -40 -9 -57 1 -26 3 -23 9 15 5 26 11 52 15 57
3 6 4 11 0 11 -3 0 -10 -12 -15 -26z"/>
<path d="M6620 1925 c0 -12 42 -77 47 -72 2 3 -7 22 -22 42 -14 21 -25 34 -25
30z"/>
<path d="M6048 1883 c6 -2 18 -2 25 0 6 3 1 5 -13 5 -14 0 -19 -2 -12 -5z"/>
<path d="M6700 1831 c14 -11 30 -21 35 -21 11 0 -7 14 -40 31 -13 7 -12 3 5
-10z"/>
<path d="M7070 1806 c0 -2 8 -10 18 -17 15 -13 16 -12 3 4 -13 16 -21 21 -21
13z"/>
<path d="M6813 1793 c9 -2 23 -2 30 0 6 3 -1 5 -18 5 -16 0 -22 -2 -12 -5z"/>
<path d="M7114 1761 c7 -11 76 -44 82 -39 2 2 -17 14 -42 26 -25 12 -43 18
-40 13z"/>
<path d="M6904 1692 c-28 -23 -58 -71 -50 -79 3 -3 6 -1 6 5 0 7 16 30 36 52
39 43 41 50 8 22z"/>
<path d="M6842 1580 c0 -14 2 -19 5 -12 2 6 2 18 0 25 -3 6 -5 1 -5 -13z"/>
<path d="M6850 1536 c0 -8 4 -17 9 -20 5 -4 7 3 4 14 -6 23 -13 26 -13 6z"/>
<path d="M6645 1500 c-3 -6 1 -7 9 -4 18 7 21 14 7 14 -6 0 -13 -4 -16 -10z"/>
<path d="M6579 1453 l-24 -28 28 24 c15 14 27 26 27 28 0 8 -8 1 -31 -24z"/>
<path d="M6979 1460 c-70 -37 -115 -120 -93 -171 7 -14 9 -6 9 30 0 62 23 96
91 133 55 31 49 38 -7 8z"/>
<path d="M6906 1246 c3 -9 13 -16 22 -16 8 0 13 1 11 3 -2 1 -12 9 -22 16 -15
12 -17 12 -11 -3z"/>
<path d="M6834 1204 c-18 -14 -18 -14 6 -3 31 14 36 19 24 19 -6 0 -19 -7 -30
-16z"/>
<path d="M6775 1153 c-45 -68 -25 -160 45 -201 22 -12 21 -11 -3 8 -61 49 -75
131 -32 190 26 35 28 40 20 40 -2 0 -16 -17 -30 -37z"/>
<path d="M6460 1105 c0 -8 2 -15 4 -15 2 0 6 7 10 15 3 8 1 15 -4 15 -6 0 -10
-7 -10 -15z"/>
<path d="M6451 1069 c-1 -18 20 -82 25 -77 2 2 -3 24 -11 48 -7 25 -14 38 -14
29z"/>
</g>
</svg>
