<?xml version="1.0" standalone="no"?>
<!DOCTYPE svg PUBLIC "-//W3C//DTD SVG 20010904//EN"
 "http://www.w3.org/TR/2001/REC-SVG-20010904/DTD/svg10.dtd">
<svg version="1.0" xmlns="http://www.w3.org/2000/svg"
 width="500.000000pt" height="499.000000pt" viewBox="0 0 500.000000 499.000000"
 preserveAspectRatio="xMidYMid meet">

<g transform="translate(0.000000,499.000000) scale(0.100000,-0.100000)"
fill="#000000" stroke="none">
<path d="M2785 4037 c-49 -28 -88 -93 -83 -139 l3 -33 19 32 19 31 40 -26 c35
-24 51 -27 119 -27 l78 1 0 -36 c0 -19 3 -45 6 -57 6 -21 7 -21 24 12 48 94
16 205 -72 251 -40 21 -107 17 -153 -9z"/>
<path d="M2739 3761 c23 -18 23 -19 5 -23 -16 -4 -14 -6 9 -13 15 -4 31 -5 34
-1 9 9 -38 56 -56 56 -12 0 -9 -6 8 -19z"/>
<path d="M2852 3733 c-28 -4 -31 -7 -22 -24 7 -13 21 -19 43 -19 24 0 28 3 17
10 -12 8 -9 10 13 10 15 0 27 5 27 10 0 6 -4 10 -9 10 -5 0 -15 2 -23 3 -7 2
-28 2 -46 0z"/>
<path d="M2684 3628 c2 -129 13 -148 93 -155 42 -4 53 -1 80 21 17 14 34 26
38 26 21 0 41 38 60 120 16 64 13 74 -9 33 -8 -16 -28 -44 -44 -61 -24 -25
-31 -29 -43 -18 -17 16 -120 39 -141 31 -11 -5 -17 7 -25 52 -11 56 -11 54 -9
-49z m109 -55 c27 -5 28 -6 7 -20 -25 -17 -56 -9 -71 19 -10 19 -9 20 12 14
13 -5 37 -10 52 -13z"/>
<path d="M2004 3627 c-9 -12 -149 -216 -313 -453 -552 -803 -602 -876 -598
-881 2 -2 55 1 118 7 399 33 618 52 714 60 61 5 124 10 142 10 49 0 61 46 68
270 5 165 9 195 34 275 16 50 39 124 51 165 25 87 80 248 115 335 13 33 20 63
17 67 -4 4 -80 43 -169 87 l-163 80 -16 -22z"/>
<path d="M3019 3578 c-6 -24 -17 -50 -25 -59 -8 -9 -14 -27 -13 -40 0 -25 -5
-94 -21 -269 -5 -58 -13 -150 -16 -205 -5 -74 -11 -105 -24 -120 -11 -13 -23
-59 -33 -130 -9 -60 -21 -111 -27 -113 -35 -12 -59 -50 -69 -111 -6 -36 -10
-66 -8 -67 1 -1 37 -5 80 -9 l79 -7 -3 36 c-2 19 2 41 8 47 8 8 9 18 2 31 -8
14 -5 20 14 29 20 9 25 22 34 85 7 52 17 81 30 94 17 15 22 42 32 169 9 112
22 187 50 293 l37 143 -22 80 c-20 70 -21 82 -8 96 8 8 14 19 14 22 0 8 -75
47 -89 47 -6 0 -15 -19 -22 -42z"/>
<path d="M3944 3443 c-14 -73 13 -101 76 -83 61 17 73 14 67 -19 -9 -45 17
-47 74 -5 64 47 67 81 12 116 -33 20 -51 23 -130 23 l-93 0 -6 -32z"/>
<path d="M2350 3350 c0 -5 5 -10 11 -10 5 0 7 5 4 10 -3 6 -8 10 -11 10 -2 0
-4 -4 -4 -10z"/>
<path d="M2366 3321 c-3 -5 1 -11 9 -15 8 -3 15 -1 15 4 0 13 -18 22 -24 11z"/>
<path d="M2640 3313 c0 -17 38 -16 69 1 23 13 22 14 -22 12 -30 -1 -47 -5 -47
-13z"/>
<path d="M2327 3296 c-6 -16 2 -28 14 -20 12 7 11 34 0 34 -5 0 -11 -6 -14
-14z"/>
<path d="M2290 3254 c0 -18 37 -47 45 -35 3 6 -2 14 -12 18 -10 4 -21 11 -25
17 -6 8 -8 8 -8 0z"/>
<path d="M2356 3244 c-4 -10 -1 -14 6 -12 15 5 23 28 10 28 -5 0 -13 -7 -16
-16z"/>
<path d="M3116 3092 c-10 -17 -66 -377 -66 -428 0 -30 -6 -67 -14 -82 -21 -41
-31 -132 -15 -132 7 0 63 4 123 10 146 13 434 37 671 56 299 23 418 34 423 39
3 2 -42 26 -99 54 -57 27 -306 148 -553 270 -247 122 -452 221 -457 221 -4 0
-10 -3 -13 -8z"/>
<path d="M2300 3085 c0 -2 7 -8 15 -15 12 -10 15 -10 15 2 0 8 -7 15 -15 15
-8 0 -15 -1 -15 -2z"/>
<path d="M2284 3039 c-5 -8 -3 -9 6 -4 10 6 11 2 6 -18 -3 -14 -2 -28 2 -31 4
-2 9 8 10 24 2 31 -12 48 -24 29z"/>
<path d="M2340 3020 c-12 -7 -12 -12 -2 -22 6 -6 12 -10 13 -7 0 2 2 12 4 22
4 20 4 19 -15 7z"/>
<path d="M2051 2235 c-17 -38 -18 -50 -9 -71 10 -21 17 -25 42 -21 23 3 36 -3
59 -26 24 -25 33 -28 47 -19 14 9 20 8 24 -5 4 -9 10 -13 14 -9 12 13 30 150
21 162 -8 10 -124 34 -163 34 -8 0 -24 -20 -35 -45z"/>
<path d="M2260 2024 c-26 -7 -69 -11 -100 -8 l-55 5 64 -35 65 -36 30 28 c77
69 77 70 -4 46z"/>
<path d="M2810 1870 c8 -5 20 -10 25 -10 6 0 3 5 -5 10 -8 5 -19 10 -25 10 -5
0 -3 -5 5 -10z"/>
<path d="M2700 1731 c19 -4 46 -11 60 -15 20 -7 22 -6 13 4 -6 7 -33 14 -60
16 -42 3 -44 2 -13 -5z"/>
<path d="M2638 1723 c7 -3 16 -2 19 1 4 3 -2 6 -13 5 -11 0 -14 -3 -6 -6z"/>
<path d="M2632 1600 c32 -4 69 -15 84 -25 15 -9 23 -12 19 -5 -13 20 -72 40
-117 39 -40 -2 -40 -2 14 -9z"/>
<path d="M2558 1483 c6 -2 18 -2 25 0 6 3 1 5 -13 5 -14 0 -19 -2 -12 -5z"/>
<path d="M2531 1356 c2 -2 15 -9 29 -16 23 -12 24 -12 11 3 -7 10 -20 17 -29
17 -8 0 -13 -2 -11 -4z"/>
<path d="M2614 1299 c-17 -5 -37 -16 -44 -24 -7 -8 -29 -15 -49 -15 -52 0
-130 -56 -182 -130 l-43 -61 -49 2 c-48 3 -49 2 -66 -37 -23 -51 -81 -99 -145
-120 -91 -31 -200 13 -252 101 -30 52 -19 51 -219 30 -279 -29 -474 -80 -483
-127 -8 -41 132 -87 355 -117 627 -84 1662 -46 1896 71 63 32 59 64 -12 95
-59 25 -254 60 -431 78 -91 9 -185 18 -209 21 l-43 6 31 32 c52 54 68 149 31
186 -22 22 -38 23 -86 9z"/>
</g>
</svg>
