<?xml version="1.0" standalone="no"?>
<!DOCTYPE svg PUBLIC "-//W3C//DTD SVG 20010904//EN"
 "http://www.w3.org/TR/2001/REC-SVG-20010904/DTD/svg10.dtd">
<svg version="1.0" xmlns="http://www.w3.org/2000/svg"
 width="597.000000pt" height="418.000000pt" viewBox="0 0 597.000000 418.000000"
 preserveAspectRatio="xMidYMid meet">

<g transform="translate(0.000000,418.000000) scale(0.100000,-0.100000)"
fill="#000000" stroke="none">
<path d="M2874 3721 c-2 -2 -4 -7 -4 -11 0 -7 2334 -1 2338 6 3 5 -2328 11
-2334 5z"/>
<path d="M2157 3594 c-4 -4 -7 -17 -7 -29 0 -20 6 -23 83 -28 45 -4 127 -7
183 -7 107 0 139 11 132 46 -3 18 -15 19 -194 22 -105 1 -193 -1 -197 -4z"/>
<path d="M3991 3531 c-8 -5 -11 -16 -8 -25 6 -15 58 -16 581 -14 316 2 578 7
583 11 4 5 -1 15 -11 22 -15 12 -118 14 -575 14 -306 0 -562 -4 -570 -8z"/>
<path d="M5245 3530 c-11 -17 5 -51 23 -48 23 4 23 52 0 56 -9 2 -19 -2 -23
-8z"/>
<path d="M2850 3291 c-21 -7 -18 -9 25 -15 126 -19 203 -51 289 -121 46 -37
63 -45 96 -45 22 0 40 4 40 9 0 15 -63 87 -97 111 -71 49 -142 70 -238 69 -49
-1 -101 -4 -115 -8z"/>
<path d="M1080 3282 c-51 -3 -75 -16 -64 -34 3 -4 257 -8 565 -8 552 0 559 0
559 20 0 20 -7 20 -427 21 -236 0 -462 2 -503 3 -41 1 -100 1 -130 -2z"/>
<path d="M2698 3230 c-28 -17 -48 -37 -48 -48 0 -24 36 -89 77 -139 22 -28 29
-43 20 -43 -22 0 -93 70 -116 113 l-19 39 -34 -54 c-54 -85 -63 -114 -62 -218
0 -134 11 -203 40 -246 16 -23 23 -45 20 -58 -11 -43 81 -143 172 -188 70 -34
193 -32 283 5 75 31 104 34 126 12 13 -14 13 -18 -2 -42 -23 -34 -120 -131
-165 -164 -35 -25 -36 -26 -157 -18 -186 12 -320 67 -395 162 -30 37 -33 48
-33 108 0 54 4 73 23 98 20 28 21 31 5 31 -10 0 -34 3 -53 6 -33 5 -37 3 -57
-33 -50 -88 -42 -152 46 -363 68 -164 137 -292 185 -344 35 -37 35 -40 25 -81
-6 -24 -9 -51 -7 -61 3 -11 10 8 17 42 12 55 16 62 46 73 112 40 556 372 611
457 22 33 11 66 -31 95 -19 13 -35 32 -35 41 0 11 -18 25 -47 38 -56 25 -99
71 -113 119 -14 51 -13 61 10 61 13 0 20 -7 20 -20 0 -28 23 -70 52 -97 20
-19 98 -57 103 -51 9 15 45 114 45 124 0 8 5 14 10 14 37 0 -19 37 -66 44 -11
2 -19 11 -19 22 0 20 1 20 53 9 36 -7 33 -15 37 104 l1 53 -102 -4 c-57 -2
-106 -7 -110 -11 -14 -13 -4 -90 13 -102 14 -10 14 -13 0 -27 -9 -9 -14 -18
-12 -20 3 -3 -6 -11 -20 -18 -21 -11 -34 -12 -73 -1 -70 18 -91 32 -135 83
l-39 47 36 31 c20 18 36 36 36 42 0 5 -14 29 -31 53 -33 46 -32 65 5 65 16 0
32 -12 47 -35 25 -36 38 -42 55 -26 5 5 75 12 157 16 127 6 147 5 147 -8 0
-12 -19 -15 -95 -19 -84 -3 -117 -10 -104 -22 2 -2 70 -6 151 -9 137 -5 147
-4 151 14 6 21 27 26 27 7 0 -6 8 -4 19 6 23 21 18 49 -16 89 -12 16 -23 33
-23 39 0 5 -7 24 -15 42 -14 30 -19 32 -69 32 -48 1 -58 6 -112 49 -98 80
-198 115 -329 115 -71 0 -85 -4 -127 -30z m-83 -566 c0 -13 8 -20 28 -22 19
-2 27 -9 27 -23 0 -11 8 -22 18 -25 49 -15 65 -39 33 -49 -16 -5 -36 5 -78 37
-70 53 -82 71 -63 92 16 21 35 15 35 -10z m25 -4 c0 -5 -4 -10 -10 -10 -5 0
-10 5 -10 10 0 6 5 10 10 10 6 0 10 -4 10 -10z m-69 -434 c79 -37 161 -55 272
-63 l97 -6 -67 -49 c-86 -62 -179 -108 -231 -115 -37 -5 -44 -2 -71 27 -39 44
-86 133 -117 222 -13 39 -24 73 -24 75 0 3 19 -12 43 -31 24 -20 68 -47 98
-60z"/>
<path d="M3734 3175 c-11 -27 5 -32 109 -33 81 -2 107 1 117 13 23 28 0 35
-111 35 -87 0 -111 -3 -115 -15z"/>
<path d="M4460 3011 c-35 -35 -39 -77 -11 -112 l19 -24 322 -5 c407 -6 465 -3
491 29 24 30 24 82 0 112 l-19 24 -386 3 -387 3 -29 -30z"/>
<path d="M993 2944 c-20 -20 -24 -31 -19 -56 9 -46 24 -58 72 -58 38 0 45 4
59 30 20 39 19 66 -5 90 -28 28 -75 26 -107 -6z"/>
<path d="M2937 2872 c-16 -17 -14 -21 23 -57 22 -22 41 -37 41 -35 1 3 3 29 4
58 3 51 2 52 -25 52 -15 0 -34 -8 -43 -18z"/>
<path d="M2862 2815 c-18 -15 -32 -32 -32 -39 0 -26 75 -85 123 -97 26 -6 50
-9 54 -6 7 8 -38 82 -79 131 l-34 38 -32 -27z"/>
<path d="M1876 2773 c-6 -14 -5 -15 5 -6 7 7 10 15 7 18 -3 3 -9 -2 -12 -12z"/>
<path d="M1708 2753 c7 -3 16 -2 19 1 4 3 -2 6 -13 5 -11 0 -14 -3 -6 -6z"/>
<path d="M1620 2726 c0 -2 8 -10 18 -17 15 -13 16 -12 3 4 -13 16 -21 21 -21
13z"/>
<path d="M4326 2707 c-26 -19 -13 -57 20 -57 28 0 42 25 27 48 -13 22 -26 24
-47 9z"/>
<path d="M3330 2620 c0 -6 7 -10 15 -10 8 0 15 2 15 4 0 2 -7 6 -15 10 -8 3
-15 1 -15 -4z"/>
<path d="M3445 2620 c-3 -5 -1 -10 4 -10 6 0 11 5 11 10 0 6 -2 10 -4 10 -3 0
-8 -4 -11 -10z"/>
<path d="M3680 2559 c-9 -16 -8 -26 5 -45 l15 -24 244 0 c229 0 244 1 261 20
12 13 15 27 11 45 l-6 25 -260 0 c-252 0 -260 -1 -270 -21z"/>
<path d="M1300 2471 c-27 -54 -26 -129 1 -184 30 -58 46 -68 72 -42 8 8 17 12
20 9 3 -3 16 6 30 20 l25 24 -34 33 c-40 39 -74 104 -74 142 0 42 -18 41 -40
-2z"/>
<path d="M2095 2418 c-2 -7 -5 -24 -7 -38 -3 -27 4 -25 -115 -19 -13 1 -23 4
-23 8 0 15 -78 11 -83 -4 -4 -9 -1 -12 8 -9 20 8 41 -62 25 -81 -13 -16 -80
-21 -80 -6 0 16 -82 21 -98 5 -8 -9 -25 -22 -37 -30 l-22 -14 23 -47 c30 -58
33 -61 44 -43 14 22 12 40 -4 40 -16 0 -29 27 -20 41 7 13 38 11 52 -3 8 -8
15 -8 26 2 24 19 49 5 42 -24 -3 -14 -2 -28 4 -31 5 -3 10 -17 10 -31 0 -17
-5 -24 -19 -24 -11 0 -23 5 -27 11 -5 8 -10 6 -16 -5 -6 -11 -4 -21 6 -32 9
-8 16 -22 16 -30 0 -19 -28 -30 -43 -15 -22 22 -30 10 -7 -13 13 -15 20 -32
17 -40 -7 -18 -33 -21 -42 -6 -9 15 -25 12 -25 -5 0 -8 9 -19 20 -25 11 -6 20
-20 20 -31 0 -23 -27 -36 -43 -20 -16 16 -27 14 -27 -5 0 -10 -7 -14 -22 -12
-18 2 -22 9 -20 29 2 20 -3 28 -19 32 -30 8 -21 42 11 41 14 -1 28 4 32 10 14
20 8 36 -12 36 -15 0 -20 7 -20 26 0 25 2 26 35 20 28 -6 35 -4 35 9 0 8 -6
15 -13 15 -8 0 -24 9 -37 20 -35 30 -44 25 -65 -32 -10 -29 -25 -59 -32 -66
-7 -7 -13 -20 -13 -27 0 -8 -8 -19 -17 -24 -10 -6 -13 -11 -7 -11 9 0 9 -11 3
-37 -5 -21 -9 -53 -9 -70 0 -24 -5 -33 -17 -34 -11 0 -13 -3 -5 -6 16 -6 16
-53 0 -53 -10 0 -10 -2 0 -8 13 -9 15 -15 27 -107 4 -27 11 -57 16 -67 7 -13
-9 -25 -99 -71 -59 -30 -129 -62 -157 -72 -27 -10 -68 -26 -90 -35 -22 -10
-49 -21 -60 -26 -29 -12 142 -23 310 -21 125 2 142 4 165 23 20 17 41 21 100
23 41 1 83 7 93 13 10 5 21 7 24 4 3 -3 19 2 34 10 38 19 64 6 67 -36 3 -38
49 -143 90 -202 16 -24 37 -60 47 -80 20 -45 70 -96 105 -110 14 -5 47 -36 74
-69 39 -49 46 -62 36 -74 -29 -35 -127 2 -131 50 -1 8 -3 20 -4 25 -1 6 -3 14
-4 18 -2 12 -179 67 -188 59 -13 -14 -5 -152 12 -192 21 -50 88 -120 140 -147
27 -14 66 -23 118 -26 71 -4 82 -2 141 27 35 17 66 31 69 31 4 0 34 -25 68
-55 34 -30 66 -55 71 -55 5 0 21 26 35 57 14 32 30 63 35 70 7 9 70 -28 235
-138 124 -83 226 -149 228 -147 8 10 25 48 25 57 0 6 -100 77 -222 158 -123
81 -225 148 -227 150 -5 3 12 46 56 140 18 40 33 77 33 83 0 6 -36 27 -80 47
-44 20 -80 41 -80 47 0 6 9 36 21 66 31 82 41 156 28 217 -37 183 -248 283
-416 198 -26 -13 -50 -22 -55 -19 -4 3 -8 27 -8 53 0 35 7 56 26 82 44 59 93
176 110 264 15 72 15 96 5 162 -16 106 -16 104 -29 136 -7 16 -12 31 -12 34 0
4 -17 33 -37 64 -36 56 -40 58 -81 59 -25 0 -44 -5 -47 -12z m380 -855 c88
-44 135 -118 135 -212 0 -56 -41 -214 -58 -224 -8 -5 -108 39 -116 51 -2 4 4
32 14 62 11 30 19 76 20 101 0 41 -4 51 -34 77 -70 62 -156 45 -192 -39 -10
-21 -22 -38 -28 -36 -18 6 -46 52 -48 77 -4 87 1 105 38 129 79 54 177 59 269
14z m-61 -164 c20 -16 26 -29 26 -60 0 -35 -23 -113 -40 -132 -9 -10 -89 36
-123 71 -25 26 -26 31 -16 63 26 78 95 104 153 58z m-380 -450 c44 -17 56 -27
61 -49 16 -71 125 -115 183 -74 13 9 24 14 26 13 1 -2 19 -25 39 -50 20 -25
37 -50 37 -56 0 -19 -82 -55 -139 -60 -84 -8 -152 17 -212 77 -55 55 -74 110
-70 198 1 27 6 27 75 1z m851 -312 c116 -77 212 -141 213 -143 7 -5 -9 -44
-18 -44 -11 0 -450 289 -450 296 0 18 23 43 33 37 7 -4 107 -70 222 -146z"/>
<path d="M2620 2265 c-10 -12 -10 -16 1 -20 119 -41 125 -42 132 -16 4 16 -5
22 -52 35 -69 19 -66 19 -81 1z"/>
<path d="M3384 2219 c-51 -19 -134 -82 -134 -101 0 -6 19 7 43 28 23 22 60 46
82 55 82 34 90 38 75 38 -8 0 -38 -9 -66 -20z"/>
<path d="M3665 2200 c4 -6 25 -20 48 -31 29 -15 45 -19 57 -12 9 7 224 11 560
12 300 1 546 4 549 6 2 2 1 11 -2 20 -6 13 -75 15 -612 15 -407 0 -604 -3
-600 -10z"/>
<path d="M3586 2185 c-3 -9 -5 -29 -5 -43 1 -20 3 -17 9 13 8 43 7 57 -4 30z"/>
<path d="M1175 2153 c-156 -67 -370 -153 -382 -153 -19 0 -16 -14 12 -70 14
-27 25 -54 25 -59 0 -5 -49 -36 -110 -68 -107 -56 -121 -70 -101 -102 7 -11
33 -1 126 48 65 33 119 61 121 61 2 0 31 -56 65 -125 l61 -124 -118 -126 c-66
-69 -122 -125 -126 -125 -7 0 -35 57 -199 402 -40 86 -75 153 -77 149 -1 -4
56 -130 128 -281 71 -151 132 -279 134 -285 6 -13 266 250 266 269 0 8 4 16 8
18 9 3 352 366 352 371 0 8 -94 185 -109 204 l-16 22 -60 -26z m-320 -321 c0
-16 -224 -137 -226 -122 -1 5 -2 15 -3 20 -1 14 194 120 214 117 8 -1 15 -8
15 -15z"/>
<path d="M3641 2149 c-1 -9 7 -23 17 -30 15 -12 16 -12 6 1 -6 8 -14 22 -17
30 -5 13 -6 12 -6 -1z"/>
<path d="M3720 2100 c-23 -7 -23 -8 -3 -9 12 -1 25 4 28 9 3 6 5 10 3 9 -2 -1
-14 -5 -28 -9z"/>
<path d="M3822 2046 c-32 -18 -37 -25 -13 -19 11 3 26 11 32 19 13 16 12 16
-19 0z"/>
<path d="M3803 1973 c9 -2 23 -2 30 0 6 3 -1 5 -18 5 -16 0 -22 -2 -12 -5z"/>
<path d="M4763 1803 c-53 -3 -73 -8 -73 -17 0 -8 7 -17 16 -20 20 -8 658 -8
678 0 9 3 16 12 16 19 0 8 -24 14 -67 18 -67 7 -431 6 -570 0z"/>
<path d="M3511 1740 c-65 -14 -169 -49 -223 -76 -58 -29 -191 -115 -186 -120
4 -3 69 10 203 41 101 24 340 28 430 9 86 -19 114 -11 152 47 27 40 27 42 8
55 -56 41 -277 66 -384 44z"/>
<path d="M3893 1523 l-93 -4 0 -49 c0 -28 -4 -50 -9 -50 -5 0 -6 -12 -2 -27 7
-27 9 -28 102 -35 132 -9 510 -8 571 1 60 10 78 29 78 81 0 53 -19 72 -81 81
-52 7 -378 8 -566 2z"/>
<path d="M1656 1249 c-2 -8 -9 -63 -16 -124 -16 -145 -59 -312 -110 -420 -22
-49 -39 -90 -36 -92 7 -7 74 132 94 197 32 98 60 233 71 345 9 90 8 130 -3 94z"/>
<path d="M777 1164 c-4 -4 -7 -13 -7 -21 0 -11 32 -13 168 -11 141 3 167 5
167 18 0 13 -26 15 -161 18 -88 1 -163 -1 -167 -4z"/>
<path d="M4317 1155 c-4 -8 -1 -17 4 -21 16 -10 542 -5 552 5 27 27 -11 31
-278 31 -231 0 -274 -2 -278 -15z"/>
<path d="M5280 999 c-31 -13 -40 -26 -40 -65 0 -38 27 -64 67 -64 61 0 95 78
53 120 -22 22 -42 24 -80 9z"/>
<path d="M3927 773 c-15 -14 -6 -53 15 -67 32 -23 190 -22 212 0 21 20 21 60
0 68 -21 8 -219 8 -227 -1z"/>
<path d="M1768 644 c-33 -17 -34 -24 -8 -47 28 -24 36 -22 48 12 14 40 -3 55
-40 35z"/>
<path d="M1363 566 c-90 -75 -170 -156 -235 -236 -85 -106 -188 -280 -188
-317 0 -10 27 -13 100 -13 67 0 100 4 100 11 0 16 65 121 128 209 30 41 99
118 153 170 l98 95 -27 77 c-15 43 -30 78 -34 78 -4 0 -47 -33 -95 -74z"/>
<path d="M1828 586 c-16 -22 -16 -25 1 -40 19 -18 41 -21 41 -7 0 6 -5 13 -11
17 -8 4 -8 9 0 17 15 15 14 37 -1 37 -7 0 -21 -11 -30 -24z"/>
<path d="M1898 542 c-16 -27 -16 -29 2 -40 31 -19 37 -15 36 25 -2 46 -17 52
-38 15z"/>
<path d="M2016 485 c-8 -33 -1 -45 29 -45 18 0 26 7 31 24 8 32 -2 46 -31 46
-16 0 -25 -7 -29 -25z"/>
<path d="M2112 455 c0 -35 18 -60 26 -36 2 7 13 21 25 31 l20 19 -27 11 c-41
15 -44 13 -44 -25z"/>
<path d="M2187 434 c-22 -30 -23 -29 26 -38 l38 -7 -3 33 c-4 43 -35 49 -61
12z"/>
<path d="M2286 428 c-10 -40 -7 -46 28 -46 28 0 35 4 40 24 9 33 0 44 -33 44
-21 0 -30 -6 -35 -22z"/>
<path d="M1479 393 c-65 -57 -107 -102 -160 -169 -42 -55 -129 -202 -129 -219
0 -5 21 26 46 70 79 138 189 269 289 342 17 12 25 23 19 23 -7 0 -36 -21 -65
-47z"/>
<path d="M1519 363 c-86 -74 -157 -161 -228 -276 -22 -37 -41 -73 -41 -80 0
-6 17 18 38 54 61 104 119 178 209 267 46 45 82 82 80 82 -1 0 -28 -21 -58
-47z"/>
<path d="M1550 317 c-89 -102 -121 -146 -165 -223 -25 -43 -45 -82 -45 -86 0
-5 326 -8 726 -8 l725 0 -3 53 c-4 61 8 57 -208 82 -74 9 -182 22 -240 30 -58
8 -121 15 -141 15 -20 0 -42 6 -48 13 -7 9 -38 14 -96 15 -152 2 -296 48 -406
128 -26 19 -48 34 -50 34 -2 0 -24 -24 -49 -53z"/>
</g>
</svg>
