<?xml version="1.0" standalone="no"?>
<!DOCTYPE svg PUBLIC "-//W3C//DTD SVG 20010904//EN"
 "http://www.w3.org/TR/2001/REC-SVG-20010904/DTD/svg10.dtd">
<svg version="1.0" xmlns="http://www.w3.org/2000/svg"
 width="720.000000pt" height="900.000000pt" viewBox="0 0 720.000000 900.000000"
 preserveAspectRatio="xMidYMid meet">

<g transform="translate(0.000000,900.000000) scale(0.100000,-0.100000)"
fill="#000000" stroke="none">
<path d="M2005 8809 c-12 -18 33 -55 84 -68 63 -16 101 -55 108 -112 6 -45 -1
-47 -21 -7 -22 45 -83 32 -111 -23 -24 -45 -55 -195 -55 -266 0 -53 6 -73 38
-135 21 -40 49 -100 62 -133 81 -207 153 -372 240 -554 107 -220 130 -293 130
-413 0 -88 -22 -187 -66 -300 -76 -192 -103 -331 -111 -568 -9 -254 22 -553
88 -846 50 -222 32 -195 219 -340 90 -71 218 -180 283 -243 99 -96 124 -127
153 -186 58 -122 42 -205 -40 -205 -104 0 -272 135 -395 317 -38 57 -120 217
-148 288 -10 25 -10 17 -5 -50 19 -216 0 -442 -43 -529 -8 -16 -15 -30 -15
-30 0 -1 29 -2 65 -2 78 -2 153 -34 205 -90 19 -20 28 -34 20 -31 -8 3 -44 18
-80 34 -55 23 -79 28 -150 27 -94 0 -138 -16 -218 -81 -38 -31 -112 -126 -112
-145 0 -3 16 -2 35 3 19 6 60 9 91 7 l56 -3 -103 -52 c-201 -102 -300 -217
-298 -348 l0 -40 14 44 c15 48 45 85 90 109 39 22 210 21 275 -1 l45 -15 -50
-1 c-74 -2 -160 -25 -205 -55 -114 -75 -180 -248 -180 -468 0 -95 1 -99 20
-93 11 4 35 3 53 -1 l32 -7 -43 -18 c-59 -26 -82 -76 -82 -184 1 -61 7 -97 26
-150 37 -100 38 -129 15 -242 -21 -102 -35 -214 -47 -382 -5 -72 -11 -99 -25
-114 -26 -28 -33 -74 -26 -186 8 -146 81 -443 111 -454 9 -4 15 -37 18 -122
l5 -118 34 -25 c19 -14 68 -59 109 -100 56 -56 66 -69 40 -54 -45 26 -194 88
-270 111 l-60 19 20 -28 c41 -57 22 -61 -47 -8 -119 89 -208 114 -286 80 -60
-27 -79 -63 -79 -152 0 -102 41 -182 146 -285 84 -83 169 -136 273 -169 69
-23 164 -86 230 -152 120 -121 251 -138 308 -40 42 72 30 125 -37 169 -22 14
-66 31 -97 37 -140 28 -210 72 -230 148 -17 61 -12 70 14 22 13 -25 37 -58 54
-74 29 -28 38 -30 139 -37 112 -6 168 -23 211 -62 l24 -22 -7 50 c-12 85 -34
150 -59 172 -43 37 -46 167 -11 463 10 86 27 162 54 245 84 257 112 415 114
640 1 148 -15 304 -33 334 -6 10 -23 8 -72 -5 -81 -22 -274 -25 -339 -4 l-45
14 105 8 c130 9 233 31 285 61 l39 22 12 96 c20 156 42 194 178 304 104 83
135 120 174 203 22 48 27 71 27 147 0 81 -3 97 -32 158 -34 70 -113 163 -170
198 -59 37 -27 32 46 -6 90 -47 146 -101 179 -173 24 -50 27 -69 26 -157 0
-78 -5 -112 -22 -155 -12 -30 -22 -56 -22 -57 0 -9 105 0 158 12 114 27 212
94 289 198 48 66 96 153 91 166 -2 4 -43 42 -93 83 -49 42 -133 120 -185 174
-104 108 -250 280 -250 296 0 5 18 7 43 4 23 -4 101 -13 172 -21 368 -43 733
-129 1019 -239 96 -38 288 -129 231 -111 -11 4 -67 22 -124 41 -190 63 -564
154 -939 229 -147 29 -183 29 -69 0 180 -46 451 -150 637 -246 183 -94 394
-243 500 -354 l45 -47 -63 45 c-160 116 -501 281 -882 427 -74 28 -152 57
-172 65 -21 8 -38 11 -38 5 0 -10 80 -118 149 -200 25 -30 121 -132 214 -227
165 -167 169 -171 198 -161 35 12 161 -3 264 -32 l70 -20 -53 5 c-29 3 -60 9
-69 12 -11 4 -6 -7 14 -33 17 -21 74 -117 127 -212 238 -429 414 -622 569
-622 63 0 110 25 177 96 94 98 143 144 203 192 64 50 89 91 112 179 17 66 20
196 5 273 -6 29 -8 55 -6 57 2 3 14 -22 26 -54 24 -62 32 -199 16 -278 l-8
-40 42 40 c22 22 88 112 147 200 74 112 130 184 188 242 61 60 93 102 119 154
29 58 36 66 36 43 -1 -25 -20 -91 -45 -147 -6 -15 -4 -16 20 -7 14 5 50 10 79
10 50 0 56 -3 98 -45 35 -34 53 -45 77 -45 66 0 131 57 131 115 0 48 -35 177
-65 237 -72 143 -155 208 -266 208 -120 0 -250 63 -290 141 -33 65 -91 88
-183 75 -95 -15 -138 -93 -116 -214 17 -93 53 -173 86 -190 30 -16 127 -21
179 -10 l30 7 -30 -14 c-21 -10 -58 -14 -118 -13 -84 2 -89 1 -110 -25 -28
-34 -84 -58 -225 -97 -121 -32 -177 -56 -203 -86 -45 -51 -31 -109 34 -141
139 -69 209 -175 142 -219 -62 -41 -138 34 -205 202 -13 32 -27 63 -31 68 -4
4 -31 -10 -61 -33 -29 -22 -80 -52 -113 -68 -87 -39 -221 -45 -268 -10 -14 10
-2 12 70 12 81 0 94 3 163 37 41 20 98 57 126 82 l50 44 -8 64 c-5 34 -18 113
-29 173 -59 320 -228 634 -421 783 l-54 41 -94 -34 c-109 -40 -268 -79 -389
-96 -98 -14 -368 -8 -397 9 -15 9 -5 11 56 12 222 1 573 93 980 255 86 34 168
69 184 77 27 14 27 14 -39 27 -246 45 -512 185 -669 351 -80 86 -196 251 -248
354 l-31 61 69 -65 c120 -112 228 -153 304 -113 19 10 40 29 47 42 30 62 -63
169 -261 301 -48 31 -89 60 -92 62 -2 3 19 -1 48 -8 91 -24 147 -16 187 27 12
13 21 36 21 53 l0 31 -52 -4 c-29 -2 -84 2 -123 10 l-70 12 60 12 c33 6 74 18
90 27 59 32 107 100 123 175 8 35 5 43 -34 98 -82 118 -147 274 -159 385 -5
54 -5 53 27 -40 80 -230 215 -404 413 -535 90 -60 158 -126 204 -200 l31 -50
0 45 c0 25 9 63 18 85 l18 39 51 -96 c98 -186 245 -353 417 -474 144 -100 225
-184 269 -276 58 -122 112 -152 219 -124 31 8 66 12 78 9 20 -5 21 -3 15 18
-12 43 -42 59 -109 59 -68 0 -106 18 -106 50 0 11 10 26 23 34 82 54 142 6
215 -172 17 -40 52 -43 77 -6 10 15 22 23 31 20 15 -6 54 26 54 45 0 7 7 17
16 23 15 11 15 20 -1 101 -18 96 -35 134 -69 155 -13 9 -75 16 -171 21 -82 4
-162 12 -177 18 -37 14 -51 38 -124 213 -35 83 -78 176 -96 206 -35 57 -120
163 -215 266 l-58 64 -50 -29 c-54 -31 -163 -69 -199 -69 -13 0 9 17 57 43 44
23 126 78 185 121 l105 79 -49 23 c-56 25 -125 93 -210 209 -62 85 -255 289
-338 359 l-49 41 26 -40 c61 -92 117 -286 117 -406 0 -89 -51 -135 -105 -95
-17 13 -18 19 -7 78 35 193 -11 353 -137 478 -70 70 -107 91 -185 109 -64 15
-100 42 -119 89 -27 68 -240 215 -324 224 -21 2 -39 14 -54 33 -44 58 -121
145 -128 145 -4 0 -13 -15 -19 -34 -7 -19 -19 -40 -28 -47 -13 -10 -13 -8 -4
15 5 15 10 66 10 114 l0 87 36 24 c174 119 296 407 311 731 l5 115 -22 -35
c-30 -48 -77 -96 -127 -131 -52 -36 -64 -37 -31 -1 32 33 72 112 88 172 14 51
40 213 35 218 -2 2 -13 -15 -25 -39 -12 -23 -46 -66 -74 -95 -51 -50 -132
-101 -144 -90 -3 3 0 6 6 6 13 0 50 59 62 100 10 35 4 37 -48 13 -31 -15 -74
-18 -272 -19 -210 -2 -242 -4 -298 -23 -153 -52 -269 -168 -323 -322 -19 -53
-23 -86 -23 -184 1 -120 13 -190 51 -294 l17 -43 18 78 c10 43 22 82 26 86 4
4 5 -30 2 -75 -11 -182 21 -347 84 -430 18 -24 39 -61 46 -83 32 -99 106 -195
163 -213 42 -13 133 -12 177 1 42 13 103 68 137 126 14 23 26 42 28 42 6 0
-16 -84 -30 -110 -26 -51 -69 -93 -118 -115 l-48 -23 95 -51 c229 -124 433
-326 526 -523 16 -34 27 -64 25 -67 -3 -2 -18 7 -33 21 -35 33 -65 48 -95 48
-25 0 -57 -27 -57 -49 0 -7 -4 -9 -10 -6 -5 3 -10 14 -10 24 0 29 -75 173
-124 238 -101 133 -305 300 -457 372 -155 73 -277 286 -333 580 -9 47 -23 92
-31 101 -39 43 -66 132 -79 269 -15 146 -21 164 -81 239 -43 53 -46 101 -11
170 33 66 87 237 93 297 5 46 2 54 -30 96 -42 54 -121 110 -190 133 -54 18
-182 22 -192 5z"/>
<path d="M3118 4023 c7 -3 16 -2 19 1 4 3 -2 6 -13 5 -11 0 -14 -3 -6 -6z"/>
<path d="M3300 1353 c-310 -52 -518 -371 -445 -682 84 -354 471 -532 805 -369
131 64 244 209 284 364 75 293 -118 609 -415 679 -60 14 -171 18 -229 8z m258
-35 c37 -11 73 -25 80 -30 6 -6 12 -29 12 -53 0 -34 4 -44 23 -52 32 -15 130
-106 146 -137 11 -20 19 -24 37 -20 21 5 25 0 40 -53 23 -78 22 -211 -1 -285
-10 -32 -22 -58 -25 -58 -3 0 -12 29 -19 64 -20 100 -21 101 -121 66 -47 -16
-97 -30 -112 -30 -26 0 -28 -3 -28 -39 0 -21 -11 -78 -25 -127 -14 -48 -24
-92 -22 -98 3 -6 38 -22 78 -35 l73 -24 -29 -23 c-34 -28 -115 -60 -189 -76
-56 -12 -213 -5 -228 10 -6 6 -3 23 11 50 l20 40 -27 18 c-43 28 -121 104
-143 141 -17 26 -24 31 -35 22 -7 -6 -41 -13 -74 -16 -56 -5 -61 -8 -56 -27 5
-21 5 -21 -10 -1 -44 56 -76 171 -76 275 -1 54 5 80 24 119 14 29 21 56 17 63
-13 21 49 123 114 188 71 70 189 134 277 149 75 13 187 4 268 -21z"/>
<path d="M3140 1162 c-35 -41 -84 -89 -107 -106 l-43 -30 29 -12 c31 -13 72
-79 97 -156 l16 -47 21 20 c23 21 61 34 152 50 48 8 69 7 102 -4 l41 -14 -15
36 c-11 26 -14 58 -10 117 5 81 17 119 46 141 14 11 13 12 -9 13 -36 0 -222
48 -234 60 -6 6 -12 10 -15 9 -4 0 -35 -35 -71 -77z"/>
</g>
</svg>
